<mxfile host="app.diagrams.net" agent="Mozilla/5.0 (Windows NT 10.0; Win64; x64) AppleWebKit/537.36 (KHTML, like Gecko) Chrome/126.0.0.0 Safari/537.36 Edg/126.0.0.0" version="24.7.16">
  <diagram name="Page-1" id="blVC33dZAGHP8NtYDnTE">
    <mxGraphModel dx="1226" dy="669" grid="1" gridSize="10" guides="1" tooltips="1" connect="1" arrows="1" fold="1" page="1" pageScale="1" pageWidth="1654" pageHeight="1169" math="0" shadow="0">
      <root>
        <mxCell id="0" />
        <mxCell id="1" parent="0" />
        <mxCell id="EFNkPYMrrfF-IAEmOeZd-1" value="Register File" style="rounded=0;whiteSpace=wrap;html=1;fillColor=#008a00;fontColor=#ffffff;strokeColor=#005700;" vertex="1" parent="1">
          <mxGeometry x="660" y="320" width="120" height="190" as="geometry" />
        </mxCell>
        <mxCell id="EFNkPYMrrfF-IAEmOeZd-2" value="&lt;font style=&quot;font-size: 10px;&quot;&gt;RS1&lt;/font&gt;" style="text;html=1;align=center;verticalAlign=middle;whiteSpace=wrap;rounded=0;" vertex="1" parent="1">
          <mxGeometry x="660" y="350" width="30" height="10" as="geometry" />
        </mxCell>
        <mxCell id="EFNkPYMrrfF-IAEmOeZd-3" value="&lt;font style=&quot;font-size: 10px;&quot;&gt;RS2&lt;/font&gt;" style="text;html=1;align=center;verticalAlign=middle;whiteSpace=wrap;rounded=0;" vertex="1" parent="1">
          <mxGeometry x="660" y="390" width="30" height="10" as="geometry" />
        </mxCell>
        <mxCell id="EFNkPYMrrfF-IAEmOeZd-4" value="&lt;font style=&quot;font-size: 10px;&quot;&gt;RD3&lt;/font&gt;" style="text;html=1;align=center;verticalAlign=middle;whiteSpace=wrap;rounded=0;" vertex="1" parent="1">
          <mxGeometry x="660" y="450" width="30" height="10" as="geometry" />
        </mxCell>
        <mxCell id="EFNkPYMrrfF-IAEmOeZd-28" style="edgeStyle=orthogonalEdgeStyle;rounded=0;orthogonalLoop=1;jettySize=auto;html=1;exitX=1;exitY=0.75;exitDx=0;exitDy=0;" edge="1" parent="1" source="EFNkPYMrrfF-IAEmOeZd-5">
          <mxGeometry relative="1" as="geometry">
            <mxPoint x="950" y="359" as="targetPoint" />
            <Array as="points">
              <mxPoint x="780" y="359" />
              <mxPoint x="950" y="359" />
            </Array>
          </mxGeometry>
        </mxCell>
        <mxCell id="EFNkPYMrrfF-IAEmOeZd-73" value="rd1" style="edgeLabel;html=1;align=center;verticalAlign=middle;resizable=0;points=[];" vertex="1" connectable="0" parent="EFNkPYMrrfF-IAEmOeZd-28">
          <mxGeometry x="0.2065" y="1" relative="1" as="geometry">
            <mxPoint as="offset" />
          </mxGeometry>
        </mxCell>
        <mxCell id="EFNkPYMrrfF-IAEmOeZd-5" value="&lt;font style=&quot;font-size: 10px;&quot;&gt;RD1&lt;/font&gt;" style="text;html=1;align=center;verticalAlign=middle;whiteSpace=wrap;rounded=0;" vertex="1" parent="1">
          <mxGeometry x="750" y="350" width="30" height="10" as="geometry" />
        </mxCell>
        <mxCell id="EFNkPYMrrfF-IAEmOeZd-6" value="&lt;font style=&quot;font-size: 10px;&quot;&gt;RD2&lt;/font&gt;" style="text;html=1;align=center;verticalAlign=middle;whiteSpace=wrap;rounded=0;" vertex="1" parent="1">
          <mxGeometry x="750" y="390" width="30" height="10" as="geometry" />
        </mxCell>
        <mxCell id="EFNkPYMrrfF-IAEmOeZd-7" value="&lt;font style=&quot;font-size: 10px;&quot;&gt;wen&lt;/font&gt;" style="text;html=1;align=center;verticalAlign=middle;whiteSpace=wrap;rounded=0;" vertex="1" parent="1">
          <mxGeometry x="705" y="320" width="30" height="10" as="geometry" />
        </mxCell>
        <mxCell id="EFNkPYMrrfF-IAEmOeZd-18" value="" style="group;fillColor=#ffcd28;gradientColor=#ffa500;strokeColor=#d79b00;" vertex="1" connectable="0" parent="1">
          <mxGeometry x="953" y="320" width="57" height="160" as="geometry" />
        </mxCell>
        <mxCell id="EFNkPYMrrfF-IAEmOeZd-8" value="" style="endArrow=none;html=1;rounded=0;endSize=8;strokeWidth=2;" edge="1" parent="EFNkPYMrrfF-IAEmOeZd-18">
          <mxGeometry width="50" height="50" relative="1" as="geometry">
            <mxPoint x="57" y="40" as="sourcePoint" />
            <mxPoint as="targetPoint" />
          </mxGeometry>
        </mxCell>
        <mxCell id="EFNkPYMrrfF-IAEmOeZd-10" value="" style="endArrow=none;html=1;rounded=0;endSize=8;strokeWidth=2;" edge="1" parent="EFNkPYMrrfF-IAEmOeZd-18">
          <mxGeometry width="50" height="50" relative="1" as="geometry">
            <mxPoint x="57" y="120" as="sourcePoint" />
            <mxPoint x="57" y="40" as="targetPoint" />
          </mxGeometry>
        </mxCell>
        <mxCell id="EFNkPYMrrfF-IAEmOeZd-11" value="" style="endArrow=none;html=1;rounded=0;endSize=8;strokeWidth=2;" edge="1" parent="EFNkPYMrrfF-IAEmOeZd-18">
          <mxGeometry width="50" height="50" relative="1" as="geometry">
            <mxPoint x="57" y="120" as="sourcePoint" />
            <mxPoint y="160" as="targetPoint" />
          </mxGeometry>
        </mxCell>
        <mxCell id="EFNkPYMrrfF-IAEmOeZd-12" value="" style="endArrow=none;html=1;rounded=0;endSize=8;strokeWidth=2;" edge="1" parent="EFNkPYMrrfF-IAEmOeZd-18">
          <mxGeometry width="50" height="50" relative="1" as="geometry">
            <mxPoint y="50" as="sourcePoint" />
            <mxPoint as="targetPoint" />
          </mxGeometry>
        </mxCell>
        <mxCell id="EFNkPYMrrfF-IAEmOeZd-13" value="" style="endArrow=none;html=1;rounded=0;endSize=8;strokeWidth=2;" edge="1" parent="EFNkPYMrrfF-IAEmOeZd-18">
          <mxGeometry width="50" height="50" relative="1" as="geometry">
            <mxPoint y="160" as="sourcePoint" />
            <mxPoint y="110" as="targetPoint" />
          </mxGeometry>
        </mxCell>
        <mxCell id="EFNkPYMrrfF-IAEmOeZd-14" value="" style="endArrow=none;html=1;rounded=0;endSize=8;strokeWidth=2;" edge="1" parent="EFNkPYMrrfF-IAEmOeZd-18">
          <mxGeometry width="50" height="50" relative="1" as="geometry">
            <mxPoint x="19" y="60" as="sourcePoint" />
            <mxPoint y="50" as="targetPoint" />
          </mxGeometry>
        </mxCell>
        <mxCell id="EFNkPYMrrfF-IAEmOeZd-15" value="" style="endArrow=none;html=1;rounded=0;endSize=8;strokeWidth=2;" edge="1" parent="EFNkPYMrrfF-IAEmOeZd-18">
          <mxGeometry width="50" height="50" relative="1" as="geometry">
            <mxPoint x="19" y="100" as="sourcePoint" />
            <mxPoint y="110" as="targetPoint" />
          </mxGeometry>
        </mxCell>
        <mxCell id="EFNkPYMrrfF-IAEmOeZd-16" value="" style="endArrow=none;html=1;rounded=0;endSize=8;strokeWidth=2;" edge="1" parent="EFNkPYMrrfF-IAEmOeZd-18">
          <mxGeometry width="50" height="50" relative="1" as="geometry">
            <mxPoint x="19" y="100" as="sourcePoint" />
            <mxPoint x="19" y="60" as="targetPoint" />
          </mxGeometry>
        </mxCell>
        <mxCell id="EFNkPYMrrfF-IAEmOeZd-19" value="A&lt;div&gt;L&lt;/div&gt;&lt;div&gt;U&lt;/div&gt;" style="text;html=1;align=center;verticalAlign=middle;resizable=0;points=[];autosize=1;strokeColor=none;fillColor=none;" vertex="1" parent="EFNkPYMrrfF-IAEmOeZd-18">
          <mxGeometry x="23.75" y="50" width="30" height="60" as="geometry" />
        </mxCell>
        <mxCell id="EFNkPYMrrfF-IAEmOeZd-82" style="edgeStyle=orthogonalEdgeStyle;rounded=0;orthogonalLoop=1;jettySize=auto;html=1;exitX=0.26744186046511625;exitY=1;exitDx=10;exitDy=0;exitPerimeter=0;endArrow=none;endFill=0;fillColor=#f0a30a;strokeColor=#BD7000;entryX=0.5;entryY=1;entryDx=0;entryDy=0;" edge="1" parent="1" source="EFNkPYMrrfF-IAEmOeZd-20" target="EFNkPYMrrfF-IAEmOeZd-124">
          <mxGeometry relative="1" as="geometry">
            <mxPoint x="909" y="510" as="targetPoint" />
            <Array as="points">
              <mxPoint x="913" y="502" />
              <mxPoint x="910" y="502" />
            </Array>
          </mxGeometry>
        </mxCell>
        <mxCell id="EFNkPYMrrfF-IAEmOeZd-83" value="&lt;font style=&quot;font-size: 8px;&quot;&gt;isShamt&lt;/font&gt;" style="edgeLabel;html=1;align=center;verticalAlign=middle;resizable=0;points=[];fontSize=8;" vertex="1" connectable="0" parent="EFNkPYMrrfF-IAEmOeZd-82">
          <mxGeometry x="0.9126" relative="1" as="geometry">
            <mxPoint y="17" as="offset" />
          </mxGeometry>
        </mxCell>
        <mxCell id="EFNkPYMrrfF-IAEmOeZd-85" style="edgeStyle=orthogonalEdgeStyle;rounded=0;orthogonalLoop=1;jettySize=auto;html=1;exitX=1;exitY=0.5;exitDx=0;exitDy=-5;exitPerimeter=0;" edge="1" parent="1" source="EFNkPYMrrfF-IAEmOeZd-20">
          <mxGeometry relative="1" as="geometry">
            <mxPoint x="950" y="449.9195402298851" as="targetPoint" />
          </mxGeometry>
        </mxCell>
        <mxCell id="EFNkPYMrrfF-IAEmOeZd-86" style="edgeStyle=orthogonalEdgeStyle;rounded=0;orthogonalLoop=1;jettySize=auto;html=1;exitX=0;exitY=0.5318181818181819;exitDx=0;exitDy=3;exitPerimeter=0;endArrow=none;endFill=0;" edge="1" parent="1" source="EFNkPYMrrfF-IAEmOeZd-20">
          <mxGeometry relative="1" as="geometry">
            <mxPoint x="880" y="500" as="targetPoint" />
            <Array as="points">
              <mxPoint x="880" y="460" />
              <mxPoint x="880" y="500" />
            </Array>
          </mxGeometry>
        </mxCell>
        <mxCell id="EFNkPYMrrfF-IAEmOeZd-20" value="&lt;h4&gt;&lt;br&gt;&lt;/h4&gt;" style="shadow=0;dashed=0;align=center;html=1;strokeWidth=1;shape=mxgraph.electrical.abstract.mux2;whiteSpace=wrap;fillColor=#e6d0de;gradientColor=#d5739d;strokeColor=#996185;" vertex="1" parent="1">
          <mxGeometry x="892" y="427.5" width="43" height="55" as="geometry" />
        </mxCell>
        <mxCell id="EFNkPYMrrfF-IAEmOeZd-90" style="edgeStyle=orthogonalEdgeStyle;rounded=0;orthogonalLoop=1;jettySize=auto;html=1;exitX=0.25;exitY=1;exitDx=10;exitDy=0;exitPerimeter=0;endArrow=none;endFill=0;fillColor=#f0a30a;strokeColor=#BD7000;entryX=0.394;entryY=0.993;entryDx=0;entryDy=0;entryPerimeter=0;" edge="1" parent="1" source="EFNkPYMrrfF-IAEmOeZd-22" target="EFNkPYMrrfF-IAEmOeZd-124">
          <mxGeometry relative="1" as="geometry">
            <mxPoint x="847" y="570" as="targetPoint" />
            <Array as="points">
              <mxPoint x="847" y="492" />
              <mxPoint x="840" y="492" />
            </Array>
          </mxGeometry>
        </mxCell>
        <mxCell id="EFNkPYMrrfF-IAEmOeZd-22" value="&lt;h4&gt;&lt;br&gt;&lt;/h4&gt;" style="shadow=0;dashed=0;align=center;html=1;strokeWidth=1;shape=mxgraph.electrical.abstract.mux2;whiteSpace=wrap;fillColor=#e6d0de;gradientColor=#d5739d;strokeColor=#996185;" vertex="1" parent="1">
          <mxGeometry x="827" y="417.5" width="40" height="55" as="geometry" />
        </mxCell>
        <mxCell id="EFNkPYMrrfF-IAEmOeZd-23" style="rounded=0;orthogonalLoop=1;jettySize=auto;html=1;exitX=1;exitY=0.5;exitDx=0;exitDy=-5;exitPerimeter=0;entryX=0.031;entryY=0.23;entryDx=0;entryDy=0;entryPerimeter=0;strokeWidth=1;edgeStyle=orthogonalEdgeStyle;endArrow=none;endFill=0;" edge="1" parent="1" source="EFNkPYMrrfF-IAEmOeZd-22" target="EFNkPYMrrfF-IAEmOeZd-20">
          <mxGeometry relative="1" as="geometry">
            <Array as="points">
              <mxPoint x="888" y="440" />
            </Array>
          </mxGeometry>
        </mxCell>
        <mxCell id="EFNkPYMrrfF-IAEmOeZd-24" style="edgeStyle=orthogonalEdgeStyle;rounded=0;orthogonalLoop=1;jettySize=auto;html=1;exitX=1;exitY=0.5;exitDx=0;exitDy=0;entryX=0;entryY=0.17727272727272728;entryDx=0;entryDy=3;entryPerimeter=0;endArrow=none;endFill=0;" edge="1" parent="1" source="EFNkPYMrrfF-IAEmOeZd-6" target="EFNkPYMrrfF-IAEmOeZd-22">
          <mxGeometry relative="1" as="geometry" />
        </mxCell>
        <mxCell id="EFNkPYMrrfF-IAEmOeZd-74" value="rd2" style="edgeLabel;html=1;align=center;verticalAlign=middle;resizable=0;points=[];" vertex="1" connectable="0" parent="EFNkPYMrrfF-IAEmOeZd-24">
          <mxGeometry x="-0.4568" relative="1" as="geometry">
            <mxPoint as="offset" />
          </mxGeometry>
        </mxCell>
        <mxCell id="EFNkPYMrrfF-IAEmOeZd-92" style="edgeStyle=orthogonalEdgeStyle;rounded=0;orthogonalLoop=1;jettySize=auto;html=1;exitX=0.25;exitY=1;exitDx=10;exitDy=0;exitPerimeter=0;endArrow=none;endFill=0;fillColor=#f0a30a;strokeColor=#BD7000;entryX=0.333;entryY=0.985;entryDx=0;entryDy=0;entryPerimeter=0;" edge="1" parent="1">
          <mxGeometry relative="1" as="geometry">
            <mxPoint x="799.63" y="220.00000000000006" as="targetPoint" />
            <mxPoint x="799.85" y="586.8" as="sourcePoint" />
          </mxGeometry>
        </mxCell>
        <mxCell id="EFNkPYMrrfF-IAEmOeZd-25" value="&lt;h4&gt;&lt;br&gt;&lt;/h4&gt;" style="shadow=0;dashed=0;align=center;html=1;strokeWidth=1;shape=mxgraph.electrical.abstract.mux2;whiteSpace=wrap;" vertex="1" parent="1">
          <mxGeometry x="780" y="530" width="40" height="55" as="geometry" />
        </mxCell>
        <mxCell id="EFNkPYMrrfF-IAEmOeZd-29" value="sign Extension" style="rounded=0;whiteSpace=wrap;html=1;" vertex="1" parent="1">
          <mxGeometry x="635" y="535" width="80" height="30" as="geometry" />
        </mxCell>
        <mxCell id="EFNkPYMrrfF-IAEmOeZd-30" style="edgeStyle=orthogonalEdgeStyle;rounded=0;orthogonalLoop=1;jettySize=auto;html=1;exitX=1;exitY=0.25;exitDx=0;exitDy=0;entryX=0;entryY=0.17727272727272728;entryDx=0;entryDy=3;entryPerimeter=0;" edge="1" parent="1" source="EFNkPYMrrfF-IAEmOeZd-29" target="EFNkPYMrrfF-IAEmOeZd-25">
          <mxGeometry relative="1" as="geometry" />
        </mxCell>
        <mxCell id="EFNkPYMrrfF-IAEmOeZd-95" value="Iimm" style="edgeLabel;html=1;align=center;verticalAlign=middle;resizable=0;points=[];fontSize=7;" vertex="1" connectable="0" parent="EFNkPYMrrfF-IAEmOeZd-30">
          <mxGeometry x="-0.4638" y="1" relative="1" as="geometry">
            <mxPoint as="offset" />
          </mxGeometry>
        </mxCell>
        <mxCell id="EFNkPYMrrfF-IAEmOeZd-34" value="Instruction&lt;div&gt;Memory&lt;/div&gt;" style="rounded=0;whiteSpace=wrap;html=1;fillColor=#d80073;fontColor=#ffffff;strokeColor=#A50040;" vertex="1" parent="1">
          <mxGeometry x="480" y="340" width="90" height="170" as="geometry" />
        </mxCell>
        <mxCell id="EFNkPYMrrfF-IAEmOeZd-41" style="edgeStyle=orthogonalEdgeStyle;rounded=0;orthogonalLoop=1;jettySize=auto;html=1;exitX=0;exitY=0.18333333333333332;exitDx=0;exitDy=3;exitPerimeter=0;endArrow=none;endFill=0;" edge="1" parent="1" source="EFNkPYMrrfF-IAEmOeZd-38">
          <mxGeometry relative="1" as="geometry">
            <mxPoint x="220" y="361.3571428571429" as="targetPoint" />
          </mxGeometry>
        </mxCell>
        <mxCell id="EFNkPYMrrfF-IAEmOeZd-114" value="PCImm" style="edgeLabel;html=1;align=center;verticalAlign=middle;resizable=0;points=[];" vertex="1" connectable="0" parent="EFNkPYMrrfF-IAEmOeZd-41">
          <mxGeometry x="0.2883" y="-2" relative="1" as="geometry">
            <mxPoint as="offset" />
          </mxGeometry>
        </mxCell>
        <mxCell id="EFNkPYMrrfF-IAEmOeZd-111" style="edgeStyle=orthogonalEdgeStyle;rounded=0;orthogonalLoop=1;jettySize=auto;html=1;exitX=0.3;exitY=1;exitDx=10;exitDy=0;exitPerimeter=0;endArrow=none;endFill=0;fillColor=#f0a30a;strokeColor=#BD7000;" edge="1" parent="1" source="EFNkPYMrrfF-IAEmOeZd-38">
          <mxGeometry relative="1" as="geometry">
            <mxPoint x="345" y="450" as="targetPoint" />
          </mxGeometry>
        </mxCell>
        <mxCell id="EFNkPYMrrfF-IAEmOeZd-112" value="isBranch | isJAL" style="edgeLabel;html=1;align=center;verticalAlign=middle;resizable=0;points=[];" vertex="1" connectable="0" parent="EFNkPYMrrfF-IAEmOeZd-111">
          <mxGeometry x="0.7279" relative="1" as="geometry">
            <mxPoint as="offset" />
          </mxGeometry>
        </mxCell>
        <mxCell id="EFNkPYMrrfF-IAEmOeZd-38" value="" style="shadow=0;dashed=0;align=center;html=1;strokeWidth=1;shape=mxgraph.electrical.abstract.mux2;whiteSpace=wrap;fillColor=#b1ddf0;strokeColor=#10739e;" vertex="1" parent="1">
          <mxGeometry x="320" y="347.5" width="50" height="60" as="geometry" />
        </mxCell>
        <mxCell id="EFNkPYMrrfF-IAEmOeZd-42" style="edgeStyle=orthogonalEdgeStyle;rounded=0;orthogonalLoop=1;jettySize=auto;html=1;exitX=0;exitY=0.18333333333333332;exitDx=0;exitDy=3;exitPerimeter=0;endArrow=none;endFill=0;" edge="1" parent="1" source="EFNkPYMrrfF-IAEmOeZd-39">
          <mxGeometry relative="1" as="geometry">
            <mxPoint x="220" y="391.6428571428571" as="targetPoint" />
          </mxGeometry>
        </mxCell>
        <mxCell id="EFNkPYMrrfF-IAEmOeZd-115" value="{AluOut[31:1],1&#39;b0}" style="edgeLabel;html=1;align=center;verticalAlign=middle;resizable=0;points=[];" vertex="1" connectable="0" parent="EFNkPYMrrfF-IAEmOeZd-42">
          <mxGeometry x="0.621" y="-3" relative="1" as="geometry">
            <mxPoint x="-17" y="1" as="offset" />
          </mxGeometry>
        </mxCell>
        <mxCell id="EFNkPYMrrfF-IAEmOeZd-110" style="edgeStyle=orthogonalEdgeStyle;rounded=0;orthogonalLoop=1;jettySize=auto;html=1;exitX=0.3;exitY=1;exitDx=10;exitDy=0;exitPerimeter=0;endArrow=none;endFill=0;fillColor=#f0a30a;strokeColor=#BD7000;" edge="1" parent="1" source="EFNkPYMrrfF-IAEmOeZd-39">
          <mxGeometry relative="1" as="geometry">
            <mxPoint x="285" y="470" as="targetPoint" />
          </mxGeometry>
        </mxCell>
        <mxCell id="EFNkPYMrrfF-IAEmOeZd-113" value="isJALR" style="edgeLabel;html=1;align=center;verticalAlign=middle;resizable=0;points=[];" vertex="1" connectable="0" parent="EFNkPYMrrfF-IAEmOeZd-110">
          <mxGeometry x="0.913" relative="1" as="geometry">
            <mxPoint as="offset" />
          </mxGeometry>
        </mxCell>
        <mxCell id="EFNkPYMrrfF-IAEmOeZd-39" value="" style="shadow=0;dashed=0;align=center;html=1;strokeWidth=1;shape=mxgraph.electrical.abstract.mux2;whiteSpace=wrap;fillColor=#b1ddf0;strokeColor=#10739e;" vertex="1" parent="1">
          <mxGeometry x="260" y="377.5" width="50" height="60" as="geometry" />
        </mxCell>
        <mxCell id="EFNkPYMrrfF-IAEmOeZd-40" style="edgeStyle=orthogonalEdgeStyle;rounded=0;orthogonalLoop=1;jettySize=auto;html=1;exitX=1;exitY=0.5;exitDx=0;exitDy=-5;exitPerimeter=0;entryX=0;entryY=0.5499999999999999;entryDx=0;entryDy=3;entryPerimeter=0;endArrow=none;endFill=0;" edge="1" parent="1" source="EFNkPYMrrfF-IAEmOeZd-39" target="EFNkPYMrrfF-IAEmOeZd-38">
          <mxGeometry relative="1" as="geometry" />
        </mxCell>
        <mxCell id="EFNkPYMrrfF-IAEmOeZd-45" style="edgeStyle=orthogonalEdgeStyle;rounded=0;orthogonalLoop=1;jettySize=auto;html=1;exitX=0.75;exitY=0;exitDx=0;exitDy=0;endArrow=none;endFill=0;" edge="1" parent="1" source="EFNkPYMrrfF-IAEmOeZd-43">
          <mxGeometry relative="1" as="geometry">
            <mxPoint x="350" y="513.7884615384615" as="targetPoint" />
          </mxGeometry>
        </mxCell>
        <mxCell id="EFNkPYMrrfF-IAEmOeZd-108" value="32&#39;d4" style="edgeLabel;html=1;align=center;verticalAlign=middle;resizable=0;points=[];" vertex="1" connectable="0" parent="EFNkPYMrrfF-IAEmOeZd-45">
          <mxGeometry x="0.766" y="1" relative="1" as="geometry">
            <mxPoint as="offset" />
          </mxGeometry>
        </mxCell>
        <mxCell id="EFNkPYMrrfF-IAEmOeZd-109" style="edgeStyle=orthogonalEdgeStyle;rounded=0;orthogonalLoop=1;jettySize=auto;html=1;exitX=0.25;exitY=0;exitDx=0;exitDy=0;entryX=0.25;entryY=0;entryDx=0;entryDy=0;" edge="1" parent="1" target="EFNkPYMrrfF-IAEmOeZd-43">
          <mxGeometry relative="1" as="geometry">
            <mxPoint x="460" y="370" as="sourcePoint" />
            <Array as="points">
              <mxPoint x="460" y="499" />
            </Array>
          </mxGeometry>
        </mxCell>
        <mxCell id="EFNkPYMrrfF-IAEmOeZd-43" value="" style="shape=offPageConnector;whiteSpace=wrap;html=1;rotation=90;" vertex="1" parent="1">
          <mxGeometry x="280" y="491.25" width="30" height="30" as="geometry" />
        </mxCell>
        <mxCell id="EFNkPYMrrfF-IAEmOeZd-44" style="edgeStyle=orthogonalEdgeStyle;rounded=0;orthogonalLoop=1;jettySize=auto;html=1;exitX=0.5;exitY=1;exitDx=0;exitDy=0;entryX=0;entryY=0.5499999999999999;entryDx=0;entryDy=3;entryPerimeter=0;endArrow=none;endFill=0;" edge="1" parent="1" source="EFNkPYMrrfF-IAEmOeZd-43" target="EFNkPYMrrfF-IAEmOeZd-39">
          <mxGeometry relative="1" as="geometry" />
        </mxCell>
        <mxCell id="EFNkPYMrrfF-IAEmOeZd-141" value="PCplus4" style="edgeLabel;html=1;align=center;verticalAlign=middle;resizable=0;points=[];" vertex="1" connectable="0" parent="EFNkPYMrrfF-IAEmOeZd-44">
          <mxGeometry x="-0.0786" y="1" relative="1" as="geometry">
            <mxPoint as="offset" />
          </mxGeometry>
        </mxCell>
        <mxCell id="EFNkPYMrrfF-IAEmOeZd-47" value="&lt;font style=&quot;font-size: 5px;&quot;&gt;PC REG&lt;/font&gt;" style="rounded=0;whiteSpace=wrap;html=1;fillColor=#1ba1e2;fontColor=#ffffff;strokeColor=#006EAF;" vertex="1" parent="1">
          <mxGeometry x="410" y="350" width="30" height="80" as="geometry" />
        </mxCell>
        <mxCell id="EFNkPYMrrfF-IAEmOeZd-48" style="edgeStyle=orthogonalEdgeStyle;rounded=0;orthogonalLoop=1;jettySize=auto;html=1;exitX=1;exitY=0.5;exitDx=0;exitDy=-5;exitPerimeter=0;entryX=-0.007;entryY=0.29;entryDx=0;entryDy=0;entryPerimeter=0;endArrow=none;endFill=0;" edge="1" parent="1" source="EFNkPYMrrfF-IAEmOeZd-38">
          <mxGeometry relative="1" as="geometry">
            <mxPoint x="370" y="370" as="sourcePoint" />
            <mxPoint x="409.79" y="370.7" as="targetPoint" />
            <Array as="points">
              <mxPoint x="390" y="373" />
              <mxPoint x="390" y="371" />
            </Array>
          </mxGeometry>
        </mxCell>
        <mxCell id="EFNkPYMrrfF-IAEmOeZd-65" value="&lt;font style=&quot;font-size: 8px;&quot;&gt;pc_next&lt;/font&gt;" style="edgeLabel;html=1;align=center;verticalAlign=middle;resizable=0;points=[];" vertex="1" connectable="0" parent="EFNkPYMrrfF-IAEmOeZd-48">
          <mxGeometry x="0.2685" relative="1" as="geometry">
            <mxPoint x="-15" y="-1" as="offset" />
          </mxGeometry>
        </mxCell>
        <mxCell id="EFNkPYMrrfF-IAEmOeZd-49" style="edgeStyle=orthogonalEdgeStyle;rounded=0;orthogonalLoop=1;jettySize=auto;html=1;exitX=1;exitY=0.25;exitDx=0;exitDy=0;entryX=-0.013;entryY=0.178;entryDx=0;entryDy=0;entryPerimeter=0;" edge="1" parent="1" source="EFNkPYMrrfF-IAEmOeZd-47" target="EFNkPYMrrfF-IAEmOeZd-34">
          <mxGeometry relative="1" as="geometry" />
        </mxCell>
        <mxCell id="EFNkPYMrrfF-IAEmOeZd-64" value="pc" style="edgeLabel;html=1;align=center;verticalAlign=middle;resizable=0;points=[];" vertex="1" connectable="0" parent="EFNkPYMrrfF-IAEmOeZd-49">
          <mxGeometry x="-0.2683" relative="1" as="geometry">
            <mxPoint as="offset" />
          </mxGeometry>
        </mxCell>
        <mxCell id="EFNkPYMrrfF-IAEmOeZd-140" style="edgeStyle=orthogonalEdgeStyle;rounded=0;orthogonalLoop=1;jettySize=auto;html=1;exitX=0;exitY=0.75;exitDx=0;exitDy=0;entryX=0;entryY=0.941;entryDx=0;entryDy=0;entryPerimeter=0;strokeWidth=3;" edge="1" parent="1" target="EFNkPYMrrfF-IAEmOeZd-50">
          <mxGeometry relative="1" as="geometry">
            <mxPoint x="1110" y="520" as="targetPoint" />
            <mxPoint x="820" y="430" as="sourcePoint" />
            <Array as="points">
              <mxPoint x="790" y="430" />
              <mxPoint x="790" y="520" />
            </Array>
          </mxGeometry>
        </mxCell>
        <mxCell id="EFNkPYMrrfF-IAEmOeZd-50" value="Instruction&lt;div&gt;Memory&lt;/div&gt;" style="rounded=0;whiteSpace=wrap;html=1;fillColor=#d80073;fontColor=#ffffff;strokeColor=#A50040;" vertex="1" parent="1">
          <mxGeometry x="1120" y="360" width="90" height="170" as="geometry" />
        </mxCell>
        <mxCell id="EFNkPYMrrfF-IAEmOeZd-51" style="edgeStyle=orthogonalEdgeStyle;rounded=0;orthogonalLoop=1;jettySize=auto;html=1;entryX=0;entryY=0.241;entryDx=0;entryDy=0;entryPerimeter=0;strokeWidth=3;" edge="1" parent="1" target="EFNkPYMrrfF-IAEmOeZd-50">
          <mxGeometry relative="1" as="geometry">
            <mxPoint x="1010" y="400" as="sourcePoint" />
            <mxPoint x="1110" y="400" as="targetPoint" />
            <Array as="points">
              <mxPoint x="1010" y="401" />
            </Array>
          </mxGeometry>
        </mxCell>
        <mxCell id="EFNkPYMrrfF-IAEmOeZd-66" style="edgeStyle=orthogonalEdgeStyle;rounded=0;orthogonalLoop=1;jettySize=auto;html=1;exitX=0;exitY=0.20121951219512196;exitDx=0;exitDy=3;exitPerimeter=0;endArrow=none;endFill=0;strokeWidth=2;" edge="1" parent="1" source="EFNkPYMrrfF-IAEmOeZd-52">
          <mxGeometry relative="1" as="geometry">
            <mxPoint x="1070" y="400" as="targetPoint" />
            <Array as="points">
              <mxPoint x="1120" y="560" />
              <mxPoint x="1070" y="560" />
            </Array>
          </mxGeometry>
        </mxCell>
        <mxCell id="EFNkPYMrrfF-IAEmOeZd-69" style="edgeStyle=orthogonalEdgeStyle;rounded=0;orthogonalLoop=1;jettySize=auto;html=1;exitX=1;exitY=0.5;exitDx=0;exitDy=0;entryX=0;entryY=0.603658536585366;entryDx=0;entryDy=3;entryPerimeter=0;strokeWidth=2;" edge="1" parent="1" source="EFNkPYMrrfF-IAEmOeZd-68" target="EFNkPYMrrfF-IAEmOeZd-52">
          <mxGeometry relative="1" as="geometry" />
        </mxCell>
        <mxCell id="EFNkPYMrrfF-IAEmOeZd-102" style="edgeStyle=orthogonalEdgeStyle;rounded=0;orthogonalLoop=1;jettySize=auto;html=1;exitX=0.3333333333333333;exitY=1;exitDx=10;exitDy=0;exitPerimeter=0;fillColor=#f0a30a;strokeColor=#BD7000;endArrow=none;endFill=0;" edge="1" parent="1" source="EFNkPYMrrfF-IAEmOeZd-52">
          <mxGeometry relative="1" as="geometry">
            <mxPoint x="1090.7096774193549" y="740.0000000000001" as="targetPoint" />
            <Array as="points">
              <mxPoint x="1091" y="720" />
              <mxPoint x="1091" y="720" />
            </Array>
          </mxGeometry>
        </mxCell>
        <mxCell id="EFNkPYMrrfF-IAEmOeZd-104" value="isLoad" style="edgeLabel;html=1;align=center;verticalAlign=middle;resizable=0;points=[];fontSize=7;" vertex="1" connectable="0" parent="EFNkPYMrrfF-IAEmOeZd-102">
          <mxGeometry x="0.7662" relative="1" as="geometry">
            <mxPoint as="offset" />
          </mxGeometry>
        </mxCell>
        <mxCell id="EFNkPYMrrfF-IAEmOeZd-52" value="&lt;h4&gt;&lt;br&gt;&lt;/h4&gt;" style="shadow=0;dashed=0;align=center;html=1;strokeWidth=1;shape=mxgraph.electrical.abstract.mux2;whiteSpace=wrap;rotation=-181;flipV=1;fillColor=#f5f5f5;strokeColor=#666666;gradientColor=#b3b3b3;" vertex="1" parent="1">
          <mxGeometry x="1060" y="610" width="60" height="82" as="geometry" />
        </mxCell>
        <mxCell id="EFNkPYMrrfF-IAEmOeZd-70" style="edgeStyle=orthogonalEdgeStyle;rounded=0;orthogonalLoop=1;jettySize=auto;html=1;exitX=0.3333333333333333;exitY=1;exitDx=10;exitDy=0;exitPerimeter=0;endArrow=none;endFill=0;fillColor=#f0a30a;strokeColor=#BD7000;" edge="1" parent="1" source="EFNkPYMrrfF-IAEmOeZd-53">
          <mxGeometry relative="1" as="geometry">
            <mxPoint x="914" y="740" as="targetPoint" />
          </mxGeometry>
        </mxCell>
        <mxCell id="EFNkPYMrrfF-IAEmOeZd-76" value="isLUI" style="edgeLabel;html=1;align=center;verticalAlign=middle;resizable=0;points=[];" vertex="1" connectable="0" parent="EFNkPYMrrfF-IAEmOeZd-70">
          <mxGeometry x="0.5682" relative="1" as="geometry">
            <mxPoint as="offset" />
          </mxGeometry>
        </mxCell>
        <mxCell id="EFNkPYMrrfF-IAEmOeZd-78" style="edgeStyle=orthogonalEdgeStyle;rounded=0;orthogonalLoop=1;jettySize=auto;html=1;exitX=0;exitY=0.603658536585366;exitDx=0;exitDy=3;exitPerimeter=0;endArrow=none;endFill=0;" edge="1" parent="1" source="EFNkPYMrrfF-IAEmOeZd-53">
          <mxGeometry relative="1" as="geometry">
            <mxPoint x="970" y="681.8571428571428" as="targetPoint" />
          </mxGeometry>
        </mxCell>
        <mxCell id="EFNkPYMrrfF-IAEmOeZd-79" value="Uimm" style="edgeLabel;html=1;align=center;verticalAlign=middle;resizable=0;points=[];" vertex="1" connectable="0" parent="EFNkPYMrrfF-IAEmOeZd-78">
          <mxGeometry x="0.6362" y="2" relative="1" as="geometry">
            <mxPoint as="offset" />
          </mxGeometry>
        </mxCell>
        <mxCell id="EFNkPYMrrfF-IAEmOeZd-53" value="&lt;h4&gt;&lt;br&gt;&lt;/h4&gt;" style="shadow=0;dashed=0;align=center;html=1;strokeWidth=1;shape=mxgraph.electrical.abstract.mux2;whiteSpace=wrap;rotation=-181;flipV=1;fillColor=#f5f5f5;gradientColor=#b3b3b3;strokeColor=#666666;" vertex="1" parent="1">
          <mxGeometry x="883.5" y="630" width="60" height="82" as="geometry" />
        </mxCell>
        <mxCell id="EFNkPYMrrfF-IAEmOeZd-60" style="edgeStyle=orthogonalEdgeStyle;rounded=0;orthogonalLoop=1;jettySize=auto;html=1;exitX=1;exitY=0.5;exitDx=0;exitDy=-5;exitPerimeter=0;entryX=0;entryY=0.25;entryDx=0;entryDy=0;strokeWidth=2;" edge="1" parent="1" source="EFNkPYMrrfF-IAEmOeZd-55" target="EFNkPYMrrfF-IAEmOeZd-4">
          <mxGeometry relative="1" as="geometry">
            <Array as="points">
              <mxPoint x="590" y="686" />
              <mxPoint x="590" y="452" />
            </Array>
          </mxGeometry>
        </mxCell>
        <mxCell id="EFNkPYMrrfF-IAEmOeZd-72" style="edgeStyle=orthogonalEdgeStyle;rounded=0;orthogonalLoop=1;jettySize=auto;html=1;exitX=0.3333333333333333;exitY=1;exitDx=10;exitDy=0;exitPerimeter=0;endArrow=none;endFill=0;fillColor=#f0a30a;strokeColor=#BD7000;" edge="1" parent="1" source="EFNkPYMrrfF-IAEmOeZd-55">
          <mxGeometry relative="1" as="geometry">
            <mxPoint x="804.3333333333333" y="780" as="targetPoint" />
          </mxGeometry>
        </mxCell>
        <mxCell id="EFNkPYMrrfF-IAEmOeZd-77" value="isJAL/isJALR" style="edgeLabel;html=1;align=center;verticalAlign=middle;resizable=0;points=[];" vertex="1" connectable="0" parent="EFNkPYMrrfF-IAEmOeZd-72">
          <mxGeometry x="0.7905" relative="1" as="geometry">
            <mxPoint as="offset" />
          </mxGeometry>
        </mxCell>
        <mxCell id="EFNkPYMrrfF-IAEmOeZd-80" style="edgeStyle=orthogonalEdgeStyle;rounded=0;orthogonalLoop=1;jettySize=auto;html=1;exitX=0;exitY=0.603658536585366;exitDx=0;exitDy=3;exitPerimeter=0;endArrow=none;endFill=0;" edge="1" parent="1" source="EFNkPYMrrfF-IAEmOeZd-55">
          <mxGeometry relative="1" as="geometry">
            <mxPoint x="860" y="701.8571428571428" as="targetPoint" />
          </mxGeometry>
        </mxCell>
        <mxCell id="EFNkPYMrrfF-IAEmOeZd-81" value="PCplus4" style="edgeLabel;html=1;align=center;verticalAlign=middle;resizable=0;points=[];" vertex="1" connectable="0" parent="EFNkPYMrrfF-IAEmOeZd-80">
          <mxGeometry x="0.7441" y="3" relative="1" as="geometry">
            <mxPoint as="offset" />
          </mxGeometry>
        </mxCell>
        <mxCell id="EFNkPYMrrfF-IAEmOeZd-55" value="&lt;h4&gt;&lt;br&gt;&lt;/h4&gt;" style="shadow=0;dashed=0;align=center;html=1;strokeWidth=1;shape=mxgraph.electrical.abstract.mux2;whiteSpace=wrap;rotation=-181;flipV=1;fillColor=#f5f5f5;gradientColor=#b3b3b3;strokeColor=#666666;" vertex="1" parent="1">
          <mxGeometry x="773.5" y="650" width="60" height="82" as="geometry" />
        </mxCell>
        <mxCell id="EFNkPYMrrfF-IAEmOeZd-57" style="edgeStyle=orthogonalEdgeStyle;rounded=0;orthogonalLoop=1;jettySize=auto;html=1;exitX=1;exitY=0.5;exitDx=0;exitDy=-5;exitPerimeter=0;entryX=0;entryY=0.20121951219512196;entryDx=0;entryDy=3;entryPerimeter=0;endArrow=none;endFill=0;strokeWidth=2;" edge="1" parent="1" source="EFNkPYMrrfF-IAEmOeZd-53" target="EFNkPYMrrfF-IAEmOeZd-55">
          <mxGeometry relative="1" as="geometry" />
        </mxCell>
        <mxCell id="EFNkPYMrrfF-IAEmOeZd-62" value="&lt;font style=&quot;font-size: 7px;&quot;&gt;D&lt;/font&gt;" style="text;html=1;align=center;verticalAlign=middle;whiteSpace=wrap;rounded=0;" vertex="1" parent="1">
          <mxGeometry x="410" y="360" width="5" height="10" as="geometry" />
        </mxCell>
        <mxCell id="EFNkPYMrrfF-IAEmOeZd-63" value="&lt;font style=&quot;font-size: 7px;&quot;&gt;Q&lt;/font&gt;" style="text;html=1;align=center;verticalAlign=middle;whiteSpace=wrap;rounded=0;" vertex="1" parent="1">
          <mxGeometry x="435" y="360" width="5" height="10" as="geometry" />
        </mxCell>
        <mxCell id="EFNkPYMrrfF-IAEmOeZd-67" value="&lt;font color=&quot;#ffffff&quot; style=&quot;font-size: 9px;&quot;&gt;Addr&lt;/font&gt;" style="text;html=1;align=center;verticalAlign=middle;whiteSpace=wrap;rounded=0;strokeWidth=0;fontSize=9;" vertex="1" parent="1">
          <mxGeometry x="1110" y="390" width="40" height="22.5" as="geometry" />
        </mxCell>
        <mxCell id="EFNkPYMrrfF-IAEmOeZd-68" value="&lt;font color=&quot;#ffffff&quot; style=&quot;font-size: 9px;&quot;&gt;Rdata&lt;/font&gt;" style="text;html=1;align=center;verticalAlign=middle;whiteSpace=wrap;rounded=0;strokeWidth=0;fontSize=9;" vertex="1" parent="1">
          <mxGeometry x="1170" y="390" width="40" height="22.5" as="geometry" />
        </mxCell>
        <mxCell id="EFNkPYMrrfF-IAEmOeZd-84" style="edgeStyle=orthogonalEdgeStyle;rounded=0;orthogonalLoop=1;jettySize=auto;html=1;exitX=1;exitY=0.5;exitDx=0;exitDy=-5;exitPerimeter=0;entryX=0;entryY=0.5318181818181819;entryDx=0;entryDy=3;entryPerimeter=0;" edge="1" parent="1" source="EFNkPYMrrfF-IAEmOeZd-25" target="EFNkPYMrrfF-IAEmOeZd-22">
          <mxGeometry relative="1" as="geometry" />
        </mxCell>
        <mxCell id="EFNkPYMrrfF-IAEmOeZd-87" value="&lt;font style=&quot;font-size: 7px;&quot;&gt;{27{0},shamt}&lt;/font&gt;" style="text;html=1;align=center;verticalAlign=middle;whiteSpace=wrap;rounded=0;" vertex="1" parent="1">
          <mxGeometry x="864" y="502.5" width="28" height="7.5" as="geometry" />
        </mxCell>
        <mxCell id="EFNkPYMrrfF-IAEmOeZd-91" value="&lt;font style=&quot;font-size: 8px;&quot;&gt;isReg||isBranch&lt;/font&gt;" style="text;html=1;align=center;verticalAlign=middle;resizable=0;points=[];autosize=1;strokeColor=none;fillColor=none;fontSize=8;" vertex="1" parent="1">
          <mxGeometry x="820" y="565" width="80" height="20" as="geometry" />
        </mxCell>
        <mxCell id="EFNkPYMrrfF-IAEmOeZd-94" style="edgeStyle=orthogonalEdgeStyle;rounded=0;orthogonalLoop=1;jettySize=auto;html=1;exitX=1.029;exitY=0.754;exitDx=0;exitDy=0;exitPerimeter=0;entryX=0;entryY=0.5318181818181819;entryDx=0;entryDy=3;entryPerimeter=0;" edge="1" parent="1" source="EFNkPYMrrfF-IAEmOeZd-29" target="EFNkPYMrrfF-IAEmOeZd-25">
          <mxGeometry relative="1" as="geometry" />
        </mxCell>
        <mxCell id="EFNkPYMrrfF-IAEmOeZd-96" value="Simm" style="edgeLabel;html=1;align=center;verticalAlign=middle;resizable=0;points=[];fontSize=6;" vertex="1" connectable="0" parent="EFNkPYMrrfF-IAEmOeZd-94">
          <mxGeometry x="0.3774" y="-1" relative="1" as="geometry">
            <mxPoint as="offset" />
          </mxGeometry>
        </mxCell>
        <mxCell id="EFNkPYMrrfF-IAEmOeZd-100" style="edgeStyle=orthogonalEdgeStyle;rounded=0;orthogonalLoop=1;jettySize=auto;html=1;exitX=0;exitY=0.603658536585366;exitDx=0;exitDy=3;exitPerimeter=0;endArrow=none;endFill=0;fillColor=#f0a30a;strokeColor=#BD7000;" edge="1" parent="1" source="EFNkPYMrrfF-IAEmOeZd-97">
          <mxGeometry relative="1" as="geometry">
            <mxPoint x="1060" y="700" as="targetPoint" />
          </mxGeometry>
        </mxCell>
        <mxCell id="EFNkPYMrrfF-IAEmOeZd-103" value="&lt;font style=&quot;font-size: 8px;&quot;&gt;pcPlusImm&lt;/font&gt;" style="edgeLabel;html=1;align=center;verticalAlign=middle;resizable=0;points=[];" vertex="1" connectable="0" parent="EFNkPYMrrfF-IAEmOeZd-100">
          <mxGeometry x="0.933" y="1" relative="1" as="geometry">
            <mxPoint as="offset" />
          </mxGeometry>
        </mxCell>
        <mxCell id="EFNkPYMrrfF-IAEmOeZd-101" style="edgeStyle=orthogonalEdgeStyle;rounded=0;orthogonalLoop=1;jettySize=auto;html=1;exitX=0.3333333333333333;exitY=1;exitDx=10;exitDy=0;exitPerimeter=0;endArrow=none;endFill=0;fillColor=#f0a30a;strokeColor=#BD7000;" edge="1" parent="1" source="EFNkPYMrrfF-IAEmOeZd-97">
          <mxGeometry relative="1" as="geometry">
            <mxPoint x="1000.5999999999999" y="750" as="targetPoint" />
          </mxGeometry>
        </mxCell>
        <mxCell id="EFNkPYMrrfF-IAEmOeZd-105" value="&lt;font style=&quot;font-size: 6px;&quot;&gt;isAUIPC&lt;/font&gt;" style="edgeLabel;html=1;align=center;verticalAlign=middle;resizable=0;points=[];" vertex="1" connectable="0" parent="EFNkPYMrrfF-IAEmOeZd-101">
          <mxGeometry x="0.846" relative="1" as="geometry">
            <mxPoint as="offset" />
          </mxGeometry>
        </mxCell>
        <mxCell id="EFNkPYMrrfF-IAEmOeZd-97" value="&lt;h4&gt;&lt;br&gt;&lt;/h4&gt;" style="shadow=0;dashed=0;align=center;html=1;strokeWidth=1;shape=mxgraph.electrical.abstract.mux2;whiteSpace=wrap;rotation=-181;flipV=1;fillColor=#f5f5f5;gradientColor=#b3b3b3;strokeColor=#666666;" vertex="1" parent="1">
          <mxGeometry x="970" y="610" width="60" height="82" as="geometry" />
        </mxCell>
        <mxCell id="EFNkPYMrrfF-IAEmOeZd-98" style="edgeStyle=orthogonalEdgeStyle;rounded=0;orthogonalLoop=1;jettySize=auto;html=1;exitX=1;exitY=0.5;exitDx=0;exitDy=-5;exitPerimeter=0;entryX=0;entryY=0.20121951219512196;entryDx=0;entryDy=3;entryPerimeter=0;endArrow=none;endFill=0;strokeWidth=2;" edge="1" parent="1" source="EFNkPYMrrfF-IAEmOeZd-52" target="EFNkPYMrrfF-IAEmOeZd-97">
          <mxGeometry relative="1" as="geometry">
            <Array as="points">
              <mxPoint x="1060" y="630" />
              <mxPoint x="1030" y="630" />
            </Array>
          </mxGeometry>
        </mxCell>
        <mxCell id="EFNkPYMrrfF-IAEmOeZd-99" style="edgeStyle=orthogonalEdgeStyle;rounded=0;orthogonalLoop=1;jettySize=auto;html=1;exitX=1;exitY=0.5;exitDx=0;exitDy=-5;exitPerimeter=0;entryX=0.007;entryY=0.246;entryDx=0;entryDy=0;entryPerimeter=0;endArrow=none;endFill=0;strokeWidth=2;" edge="1" parent="1" source="EFNkPYMrrfF-IAEmOeZd-97" target="EFNkPYMrrfF-IAEmOeZd-53">
          <mxGeometry relative="1" as="geometry" />
        </mxCell>
        <mxCell id="EFNkPYMrrfF-IAEmOeZd-107" value="" style="shape=orEllipse;perimeter=ellipsePerimeter;whiteSpace=wrap;html=1;backgroundOutline=1;" vertex="1" parent="1">
          <mxGeometry x="285" y="497.75" width="20" height="17" as="geometry" />
        </mxCell>
        <mxCell id="EFNkPYMrrfF-IAEmOeZd-118" value="" style="endArrow=none;html=1;rounded=0;exitX=1.005;exitY=0.178;exitDx=0;exitDy=0;exitPerimeter=0;strokeWidth=4;" edge="1" parent="1" source="EFNkPYMrrfF-IAEmOeZd-34">
          <mxGeometry width="50" height="50" relative="1" as="geometry">
            <mxPoint x="580" y="420" as="sourcePoint" />
            <mxPoint x="610" y="370" as="targetPoint" />
          </mxGeometry>
        </mxCell>
        <mxCell id="EFNkPYMrrfF-IAEmOeZd-142" value="INSTR" style="edgeLabel;html=1;align=center;verticalAlign=middle;resizable=0;points=[];" vertex="1" connectable="0" parent="EFNkPYMrrfF-IAEmOeZd-118">
          <mxGeometry x="0.512" y="3" relative="1" as="geometry">
            <mxPoint x="20" y="63" as="offset" />
          </mxGeometry>
        </mxCell>
        <mxCell id="EFNkPYMrrfF-IAEmOeZd-119" value="" style="endArrow=classic;html=1;rounded=0;entryX=0;entryY=0;entryDx=0;entryDy=0;strokeWidth=3;" edge="1" parent="1" target="EFNkPYMrrfF-IAEmOeZd-2">
          <mxGeometry width="50" height="50" relative="1" as="geometry">
            <mxPoint x="610" y="350" as="sourcePoint" />
            <mxPoint x="657.51" y="350.55" as="targetPoint" />
          </mxGeometry>
        </mxCell>
        <mxCell id="EFNkPYMrrfF-IAEmOeZd-120" value="" style="endArrow=classic;html=1;rounded=0;entryX=-0.083;entryY=0.555;entryDx=0;entryDy=0;entryPerimeter=0;strokeWidth=3;" edge="1" parent="1">
          <mxGeometry width="50" height="50" relative="1" as="geometry">
            <mxPoint x="610" y="400" as="sourcePoint" />
            <mxPoint x="660" y="400" as="targetPoint" />
          </mxGeometry>
        </mxCell>
        <mxCell id="EFNkPYMrrfF-IAEmOeZd-121" value="" style="endArrow=none;html=1;rounded=0;strokeWidth=2;" edge="1" parent="1">
          <mxGeometry width="50" height="50" relative="1" as="geometry">
            <mxPoint x="610" y="400" as="sourcePoint" />
            <mxPoint x="610" y="350" as="targetPoint" />
          </mxGeometry>
        </mxCell>
        <mxCell id="EFNkPYMrrfF-IAEmOeZd-122" value="" style="endArrow=none;html=1;rounded=0;strokeWidth=3;" edge="1" parent="1">
          <mxGeometry width="50" height="50" relative="1" as="geometry">
            <mxPoint x="600" y="550" as="sourcePoint" />
            <mxPoint x="600" y="370" as="targetPoint" />
          </mxGeometry>
        </mxCell>
        <mxCell id="EFNkPYMrrfF-IAEmOeZd-123" value="" style="endArrow=none;html=1;rounded=0;entryX=0;entryY=0.5;entryDx=0;entryDy=0;strokeWidth=3;" edge="1" parent="1" target="EFNkPYMrrfF-IAEmOeZd-29">
          <mxGeometry width="50" height="50" relative="1" as="geometry">
            <mxPoint x="600" y="550" as="sourcePoint" />
            <mxPoint x="630" y="550" as="targetPoint" />
          </mxGeometry>
        </mxCell>
        <mxCell id="EFNkPYMrrfF-IAEmOeZd-126" style="edgeStyle=orthogonalEdgeStyle;rounded=0;orthogonalLoop=1;jettySize=auto;html=1;exitX=0;exitY=0.5;exitDx=0;exitDy=0;endArrow=classic;endFill=1;strokeWidth=3;entryX=0;entryY=0.5;entryDx=0;entryDy=0;" edge="1" parent="1" target="EFNkPYMrrfF-IAEmOeZd-124">
          <mxGeometry relative="1" as="geometry">
            <mxPoint x="590" y="369.9999999999999" as="sourcePoint" />
          </mxGeometry>
        </mxCell>
        <mxCell id="EFNkPYMrrfF-IAEmOeZd-124" value="&lt;font style=&quot;font-size: 17px;&quot;&gt;Decoder&lt;/font&gt;" style="rounded=1;whiteSpace=wrap;html=1;fillColor=#f8cecc;strokeColor=#b85450;gradientColor=#ea6b66;" vertex="1" parent="1">
          <mxGeometry x="580" y="100" width="660" height="120" as="geometry" />
        </mxCell>
        <mxCell id="EFNkPYMrrfF-IAEmOeZd-127" value="" style="endArrow=classic;html=1;rounded=0;fillColor=#f0a30a;strokeColor=#BD7000;" edge="1" parent="1">
          <mxGeometry width="50" height="50" relative="1" as="geometry">
            <mxPoint x="990" y="221" as="sourcePoint" />
            <mxPoint x="990" y="340" as="targetPoint" />
          </mxGeometry>
        </mxCell>
        <mxCell id="EFNkPYMrrfF-IAEmOeZd-128" value="&lt;font style=&quot;font-size: 9px;&quot;&gt;isReg || isBranch&lt;/font&gt;" style="edgeLabel;html=1;align=center;verticalAlign=middle;resizable=0;points=[];fontSize=9;" vertex="1" connectable="0" parent="1">
          <mxGeometry x="846.9999999999998" y="235.00333333333333" as="geometry" />
        </mxCell>
        <mxCell id="EFNkPYMrrfF-IAEmOeZd-129" value="&lt;font style=&quot;font-size: 8px;&quot;&gt;AluControl&lt;/font&gt;" style="edgeLabel;html=1;align=center;verticalAlign=middle;resizable=0;points=[];fontSize=8;" vertex="1" connectable="0" parent="1">
          <mxGeometry x="999.9999999999998" y="240.0033333333334" as="geometry">
            <mxPoint x="-8" y="8" as="offset" />
          </mxGeometry>
        </mxCell>
        <mxCell id="EFNkPYMrrfF-IAEmOeZd-130" value="&lt;font style=&quot;font-size: 8px;&quot;&gt;isStore&lt;/font&gt;" style="text;html=1;align=center;verticalAlign=middle;resizable=0;points=[];autosize=1;strokeColor=none;fillColor=none;" vertex="1" parent="1">
          <mxGeometry x="770" y="235" width="50" height="30" as="geometry" />
        </mxCell>
        <mxCell id="EFNkPYMrrfF-IAEmOeZd-131" value="" style="endArrow=classic;html=1;rounded=0;exitX=0.167;exitY=1.016;exitDx=0;exitDy=0;exitPerimeter=0;fillColor=#f0a30a;strokeColor=#BD7000;" edge="1" parent="1">
          <mxGeometry width="50" height="50" relative="1" as="geometry">
            <mxPoint x="690.22" y="219.99999999999997" as="sourcePoint" />
            <mxPoint x="690" y="280" as="targetPoint" />
          </mxGeometry>
        </mxCell>
        <mxCell id="EFNkPYMrrfF-IAEmOeZd-135" value="isLoad" style="edgeLabel;html=1;align=center;verticalAlign=middle;resizable=0;points=[];fontSize=7;" vertex="1" connectable="0" parent="EFNkPYMrrfF-IAEmOeZd-131">
          <mxGeometry x="0.4048" y="-1" relative="1" as="geometry">
            <mxPoint as="offset" />
          </mxGeometry>
        </mxCell>
        <mxCell id="EFNkPYMrrfF-IAEmOeZd-132" value="" style="endArrow=classic;html=1;rounded=0;exitX=0.167;exitY=1.016;exitDx=0;exitDy=0;exitPerimeter=0;fillColor=#f0a30a;strokeColor=#BD7000;" edge="1" parent="1">
          <mxGeometry width="50" height="50" relative="1" as="geometry">
            <mxPoint x="715.22" y="219.99999999999997" as="sourcePoint" />
            <mxPoint x="715" y="280" as="targetPoint" />
          </mxGeometry>
        </mxCell>
        <mxCell id="EFNkPYMrrfF-IAEmOeZd-136" value="isAUIPC" style="edgeLabel;html=1;align=center;verticalAlign=middle;resizable=0;points=[];fontSize=6;" vertex="1" connectable="0" parent="EFNkPYMrrfF-IAEmOeZd-132">
          <mxGeometry x="-0.357" y="-1" relative="1" as="geometry">
            <mxPoint as="offset" />
          </mxGeometry>
        </mxCell>
        <mxCell id="EFNkPYMrrfF-IAEmOeZd-133" value="" style="endArrow=classic;html=1;rounded=0;exitX=0.167;exitY=1.016;exitDx=0;exitDy=0;exitPerimeter=0;fillColor=#f0a30a;strokeColor=#BD7000;" edge="1" parent="1">
          <mxGeometry width="50" height="50" relative="1" as="geometry">
            <mxPoint x="740.22" y="219.99999999999997" as="sourcePoint" />
            <mxPoint x="740" y="280" as="targetPoint" />
          </mxGeometry>
        </mxCell>
        <mxCell id="EFNkPYMrrfF-IAEmOeZd-137" value="isJAL" style="edgeLabel;html=1;align=center;verticalAlign=middle;resizable=0;points=[];fontSize=8;" vertex="1" connectable="0" parent="EFNkPYMrrfF-IAEmOeZd-133">
          <mxGeometry x="0.4366" y="-1" relative="1" as="geometry">
            <mxPoint as="offset" />
          </mxGeometry>
        </mxCell>
        <mxCell id="EFNkPYMrrfF-IAEmOeZd-134" value="" style="endArrow=classic;html=1;rounded=0;exitX=0.167;exitY=1.016;exitDx=0;exitDy=0;exitPerimeter=0;fillColor=#f0a30a;strokeColor=#BD7000;" edge="1" parent="1">
          <mxGeometry width="50" height="50" relative="1" as="geometry">
            <mxPoint x="770.22" y="219.99999999999997" as="sourcePoint" />
            <mxPoint x="770" y="280" as="targetPoint" />
          </mxGeometry>
        </mxCell>
        <mxCell id="EFNkPYMrrfF-IAEmOeZd-138" value="&lt;font style=&quot;font-size: 8px;&quot;&gt;isJALR&lt;/font&gt;" style="edgeLabel;html=1;align=center;verticalAlign=middle;resizable=0;points=[];" vertex="1" connectable="0" parent="EFNkPYMrrfF-IAEmOeZd-134">
          <mxGeometry x="0.3254" relative="1" as="geometry">
            <mxPoint as="offset" />
          </mxGeometry>
        </mxCell>
      </root>
    </mxGraphModel>
  </diagram>
</mxfile>
